0
SECTION
2
HEADER
9
$INSUNITS
70
4
9
$ACADVER
1
AC1014
9
$HANDSEED
5
FFFF
0
ENDSEC
0
SECTION
2
TABLES
0
TABLE
2
VPORT
5
8
100
AcDbSymbolTable
0
ENDTAB
0
TABLE
2
LTYPE
5
5
100
AcDbSymbolTable
0
LTYPE
5
14
100
AcDbSymbolTableRecord
100
AcDbLinetypeTableRecord
2
BYBLOCK
70
0
0
LTYPE
5
15
100
AcDbSymbolTableRecord
100
AcDbLinetypeTableRecord
2
BYLAYER
70
0
0
ENDTAB
0
TABLE
2
LAYER
5
2
100
AcDbSymbolTable
70
2
0
LAYER
5
50
100
AcDbSymbolTableRecord
100
AcDbLayerTableRecord
2
0
70
0
6
CONTINUOUS
0
ENDTAB
0
TABLE
2
STYLE
5
3
100
AcDbSymbolTable
70
1
0
STYLE
5
11
100
AcDbSymbolTableRecord
100
AcDbTextStyleTableRecord
2
STANDARD
70
0
0
ENDTAB
0
TABLE
2
VIEW
5
6
100
AcDbSymbolTable
70
0
0
ENDTAB
0
TABLE
2
UCS
5
7
100
AcDbSymbolTable
70
0
0
ENDTAB
0
TABLE
2
APPID
5
9
100
AcDbSymbolTable
70
2
0
APPID
5
12
100
AcDbSymbolTableRecord
100
AcDbRegAppTableRecord
2
ACAD
70
0
0
ENDTAB
0
TABLE
2
DIMSTYLE
5
A
100
AcDbSymbolTable
70
1
0
ENDTAB
0
TABLE
2
BLOCK_RECORD
5
1
100
AcDbSymbolTable
70
1
0
BLOCK_RECORD
5
1F
100
AcDbSymbolTableRecord
100
AcDbBlockTableRecord
2
*MODEL_SPACE
0
BLOCK_RECORD
5
1B
100
AcDbSymbolTableRecord
100
AcDbBlockTableRecord
2
*PAPER_SPACE
0
ENDTAB
0
ENDSEC
0
SECTION
2
BLOCKS
0
BLOCK
5
20
100
AcDbEntity
100
AcDbBlockBegin
2
*MODEL_SPACE
0
ENDBLK
5
21
100
AcDbEntity
100
AcDbBlockEnd
0
BLOCK
5
1C
100
AcDbEntity
100
AcDbBlockBegin
2
*PAPER_SPACE
0
ENDBLK
5
1D
100
AcDbEntity
100
AcDbBlockEnd
0
ENDSEC
0
SECTION
2
ENTITIES
0
CIRCLE
5
100
100
AcDbEntity
8
0
100
AcDbCircle
10
-56.649503684279942
20
0.8435643375805113
30
0
40
0.4564359018271657
210
0
220
0
230
1
0
CIRCLE
5
101
100
AcDbEntity
8
0
100
AcDbCircle
10
-56.659857733278223
20
-0.4870424597499759
30
0
40
0.44169699572517074
210
0
220
0
230
1
0
CIRCLE
5
102
100
AcDbEntity
8
0
100
AcDbCircle
10
-56.574998735450208
20
16.386500586949808
30
0
40
0.53852388421778385
210
0
220
0
230
1
0
CIRCLE
5
103
100
AcDbEntity
8
0
100
AcDbCircle
10
-56.604902450979466
20
17.723073927811562
30
0
40
0.51016429492521653
210
-0
220
0
230
1
0
CIRCLE
5
104
100
AcDbEntity
8
0
100
AcDbCircle
10
-53.99499873545021
20
16.386500586949808
30
0
40
0.53852388421778385
210
0
220
0
230
1
0
CIRCLE
5
105
100
AcDbEntity
8
0
100
AcDbCircle
10
-54.079857733278224
20
-0.4870424597499759
30
0
40
0.44169699572517074
210
0
220
0
230
1
0
CIRCLE
5
106
100
AcDbEntity
8
0
100
AcDbCircle
10
-54.024902450979468
20
17.723073927811562
30
0
40
0.51016429492521653
210
0
220
0
230
1
0
CIRCLE
5
107
100
AcDbEntity
8
0
100
AcDbCircle
10
-54.069503684279937
20
0.8435643375805113
30
0
40
0.4564359018271657
210
0
220
0
230
1
0
CIRCLE
5
108
100
AcDbEntity
8
0
100
AcDbCircle
10
-51.414998735450212
20
16.386500586949808
30
0
40
0.53852388421778385
210
0
220
0
230
1
0
CIRCLE
5
109
100
AcDbEntity
8
0
100
AcDbCircle
10
-51.499857733278219
20
-0.4870424597499759
30
0
40
0.44169699572517074
210
0
220
0
230
1
0
CIRCLE
5
110
100
AcDbEntity
8
0
100
AcDbCircle
10
-51.44490245097947
20
17.723073927811562
30
0
40
0.51016429492521653
210
0
220
0
230
1
0
CIRCLE
5
111
100
AcDbEntity
8
0
100
AcDbCircle
10
-51.489503684279939
20
0.8435643375805113
30
0
40
0.4564359018271657
210
0
220
0
230
1
0
CIRCLE
5
112
100
AcDbEntity
8
0
100
AcDbCircle
10
-48.834998735450206
20
16.386500586949808
30
0
40
0.53852388421778385
210
0
220
0
230
1
0
CIRCLE
5
113
100
AcDbEntity
8
0
100
AcDbCircle
10
-48.919857733278221
20
-0.4870424597499759
30
0
40
0.44169699572517074
210
0
220
0
230
1
0
CIRCLE
5
114
100
AcDbEntity
8
0
100
AcDbCircle
10
-48.864902450979464
20
17.723073927811562
30
0
40
0.51016429492521653
210
0
220
0
230
1
0
CIRCLE
5
115
100
AcDbEntity
8
0
100
AcDbCircle
10
-48.90950368427994
20
0.8435643375805113
30
0
40
0.4564359018271657
210
0
220
0
230
1
0
CIRCLE
5
116
100
AcDbEntity
8
0
100
AcDbCircle
10
-46.254998735450208
20
16.386500586949808
30
0
40
0.53852388421778385
210
0
220
0
230
1
0
CIRCLE
5
117
100
AcDbEntity
8
0
100
AcDbCircle
10
-46.339857733278222
20
-0.4870424597499759
30
0
40
0.44169699572517074
210
0
220
0
230
1
0
CIRCLE
5
118
100
AcDbEntity
8
0
100
AcDbCircle
10
-46.284902450979466
20
17.723073927811562
30
0
40
0.51016429492521653
210
0
220
0
230
1
0
CIRCLE
5
119
100
AcDbEntity
8
0
100
AcDbCircle
10
-46.329503684279942
20
0.8435643375805113
30
0
40
0.4564359018271657
210
0
220
0
230
1
0
CIRCLE
5
120
100
AcDbEntity
8
0
100
AcDbCircle
10
-43.67499873545021
20
16.386500586949808
30
0
40
0.53852388421778385
210
0
220
0
230
1
0
CIRCLE
5
121
100
AcDbEntity
8
0
100
AcDbCircle
10
-43.759857733278224
20
-0.4870424597499759
30
0
40
0.44169699572517074
210
0
220
0
230
1
0
CIRCLE
5
122
100
AcDbEntity
8
0
100
AcDbCircle
10
-43.704902450979468
20
17.723073927811562
30
0
40
0.51016429492521653
210
0
220
0
230
1
0
CIRCLE
5
123
100
AcDbEntity
8
0
100
AcDbCircle
10
-43.749503684279944
20
0.8435643375805113
30
0
40
0.4564359018271657
210
0
220
0
230
1
0
CIRCLE
5
124
100
AcDbEntity
8
0
100
AcDbCircle
10
-41.094998735450204
20
16.386500586949808
30
0
40
0.53852388421778385
210
0
220
0
230
1
0
CIRCLE
5
125
100
AcDbEntity
8
0
100
AcDbCircle
10
-41.179857733278226
20
-0.4870424597499759
30
0
40
0.44169699572517074
210
0
220
0
230
1
0
CIRCLE
5
126
100
AcDbEntity
8
0
100
AcDbCircle
10
-41.124902450979462
20
17.723073927811562
30
0
40
0.51016429492521653
210
0
220
0
230
1
0
CIRCLE
5
127
100
AcDbEntity
8
0
100
AcDbCircle
10
-41.169503684279938
20
0.8435643375805113
30
0
40
0.4564359018271657
210
0
220
0
230
1
0
LINE
5
128
100
AcDbEntity
8
0
100
AcDbLine
10
-57.981052257062757
20
17.612346519843975
30
0
11
-40.19999910145998
21
17.599999606609344
31
0
0
LINE
5
129
100
AcDbEntity
8
0
100
AcDbLine
10
-38.349900501726779
20
15.915991150392571
30
0
11
-38.349900501726779
21
1.1030134271512479
31
0
0
LINE
5
130
100
AcDbEntity
8
0
100
AcDbLine
10
-40.19999910145998
20
-0.4999999888241291
30
0
11
-57.574973086176364
21
-0.43372308757349815
31
0
0
LINE
5
131
100
AcDbEntity
8
0
100
AcDbLine
10
-59.399998672306538
20
0.79999998211860657
30
0
11
-59.341594550788827
21
16.11106722910894
31
0
0
CIRCLE
5
132
100
AcDbEntity
8
0
100
AcDbCircle
10
-42.94999903999269
20
9.9499997776001692
30
0
40
0.65192022594871202
210
0
220
-0
230
1
0
CIRCLE
5
133
100
AcDbEntity
8
0
100
AcDbCircle
10
-40.382017690737229
20
9.9767979176666142
30
0
40
0.55395933083259508
210
0
220
-0
230
1
0
CIRCLE
5
134
100
AcDbEntity
8
0
100
AcDbCircle
10
-42.94999903999269
20
7.4499997776001692
30
0
40
0.65192022594871202
210
0
220
-0
230
1
0
CIRCLE
5
135
100
AcDbEntity
8
0
100
AcDbCircle
10
-40.382017690737229
20
7.4767979176666142
30
0
40
0.55395933083259508
210
0
220
-0
230
1
0
LWPOLYLINE
5
136
100
AcDbEntity
8
0
100
AcDbPolyline
90
4
70
1
43
0.0
10
-58.699998687952757
20
10.599999763071537
10
-56.599998734891415
20
10.599999763071537
10
-56.599998734891415
20
9.499999787658453
10
-58.699998687952757
20
9.499999787658453
0
LWPOLYLINE
5
137
100
AcDbEntity
8
0
100
AcDbPolyline
90
4
70
1
43
0.0
10
-56.599998734891415
20
6.8999997876584533
10
-58.699998687952757
20
6.8999997876584533
10
-58.699998687952757
20
7.9999997630715374
10
-56.599998734891415
20
7.9999997630715374
0
LWPOLYLINE
5
138
100
AcDbEntity
8
0
100
AcDbPolyline
90
4
70
1
43
0.0
10
-36.794889017695439
20
12.983856220594379
10
-44.194889017695445
20
12.983856220594379
10
-44.194889017695445
20
4.0838565685364925
10
-36.794889017695439
20
4.0838565685364925
0
SPLINE
5
139
100
AcDbEntity
8
0
100
AcDbSpline
70
4
71
5
72
21
73
15
74
0
42
0.000000001
43
0.0000000001
44
0.0000000001
40
0
40
0
40
0
40
0
40
0
40
0
40
0.10000000000000001
40
0.20000000000000001
40
0.30000000000000004
40
0.40000000000000002
40
0.5
40
0.59999999999999998
40
0.69999999999999996
40
0.79999999999999993
40
0.89999999999999991
40
1
40
1
40
1
40
1
40
1
40
1
41
1
41
1
41
1
41
1
41
1
41
1
41
1
41
1
41
1
41
1
41
1
41
1
41
1
41
1
41
1
10
-59.341594550788827
20
16.11106722910894
30
0
10
-59.334840549467188
20
16.15996644531425
30
0
10
-59.319546811915778
20
16.256117345987057
30
0
10
-59.291249168770648
20
16.395401256694452
30
0
10
-59.2426271859553
20
16.571064292848884
30
0
10
-59.162464066485427
20
16.772757757711485
30
0
10
-59.061180286751238
20
16.954965151079605
30
0
10
-58.937048251517069
20
17.116092581297011
30
0
10
-58.789117573912151
20
17.255263214677701
30
0
10
-58.6183207998412
20
17.373337424717505
30
0
10
-58.426379488735378
20
17.471903534407723
30
0
10
-58.257296651952579
20
17.536428529329008
30
0
10
-58.122303922546067
20
17.577274794067876
30
0
10
-58.02873225000792
20
17.601205914793375
30
0
10
-57.981052257062757
20
17.612346519843975
30
0
0
SPLINE
5
140
100
AcDbEntity
8
0
100
AcDbSpline
70
4
71
5
72
21
73
15
74
0
42
0.000000001
43
0.0000000001
44
0.0000000001
40
0
40
0
40
0
40
0
40
0
40
0
40
0.10000000000000001
40
0.20000000000000001
40
0.30000000000000004
40
0.40000000000000002
40
0.5
40
0.59999999999999998
40
0.69999999999999996
40
0.79999999999999993
40
0.89999999999999991
40
1
40
1
40
1
40
1
40
1
40
1
41
1
41
1
41
1
41
1
41
1
41
1
41
1
41
1
41
1
41
1
41
1
41
1
41
1
41
1
41
1
10
-40.19999910145998
20
17.599999606609344
30
0
10
-40.136312272455335
20
17.585960627412408
30
0
10
-40.011244950824356
20
17.556185107333949
30
0
10
-39.830562657405018
20
17.506429377775522
30
0
10
-39.603720730392794
20
17.429733907600269
30
0
10
-39.345226792483984
20
17.315420469354112
30
0
10
-39.114110260170285
20
17.180956095962255
30
0
10
-38.912732480952869
20
17.024602735208958
30
0
10
-38.742606682774877
20
16.845246586951994
30
0
10
-38.602797829738392
20
16.643575877385409
30
0
10
-38.491141229791651
20
16.421183911941746
30
0
10
-38.422553027833779
20
16.228006968016516
30
0
10
-38.382044294017284
20
16.075077535610536
30
0
10
-38.359818429614919
20
15.969606328138884
30
0
10
-38.349900501726779
20
15.915991150392571
30
0
0
SPLINE
5
141
100
AcDbEntity
8
0
100
AcDbSpline
70
4
71
5
72
21
73
15
74
0
42
0.000000001
43
0.0000000001
44
0.0000000001
40
0
40
0
40
0
40
0
40
0
40
0
40
0.10000000000000001
40
0.20000000000000001
40
0.30000000000000004
40
0.40000000000000002
40
0.5
40
0.59999999999999998
40
0.69999999999999996
40
0.79999999999999993
40
0.89999999999999991
40
1
40
1
40
1
40
1
40
1
40
1
41
1
41
1
41
1
41
1
41
1
41
1
41
1
41
1
41
1
41
1
41
1
41
1
41
1
41
1
41
1
10
-38.349900501726779
20
1.1030134271512479
30
0
10
-38.366178168187595
20
1.0479437615357365
30
0
10
-38.400545080096769
20
0.93981575659854155
30
0
10
-38.45753002707238
20
0.78365755281845928
30
0
10
-38.544559297241413
20
0.58771427153970668
30
0
10
-38.67300976523908
20
0.36461721797154412
30
0
10
-38.822875566831826
20
0.16529678350891036
30
0
10
-38.995895138990583
20
-0.0083169123112196933
30
0
10
-39.193000695679444
20
-0.15518886826835152
30
0
10
-39.413218913550743
20
-0.2763997277414133
30
0
10
-39.654797447365503
20
-0.37389505207631968
30
0
10
-39.863742355839733
20
-0.43448010124022562
30
0
10
-40.028710950027047
20
-0.4707482253967285
30
0
10
-40.142301171763172
20
-0.49091764430370749
30
0
10
-40.19999910145998
20
-0.4999999888241291
30
0
0
SPLINE
5
142
100
AcDbEntity
8
0
100
AcDbSpline
70
4
71
5
72
21
73
15
74
0
42
0.000000001
43
0.0000000001
44
0.0000000001
40
0
40
0
40
0
40
0
40
0
40
0
40
0.10000000000000001
40
0.20000000000000001
40
0.30000000000000004
40
0.40000000000000002
40
0.5
40
0.59999999999999998
40
0.69999999999999996
40
0.79999999999999993
40
0.89999999999999991
40
1
40
1
40
1
40
1
40
1
40
1
41
1
41
1
41
1
41
1
41
1
41
1
41
1
41
1
41
1
41
1
41
1
41
1
41
1
41
1
41
1
10
-57.574973086176364
20
-0.43372308757349815
30
0
10
-57.6389081248781
20
-0.42503204262663941
30
0
10
-57.764437011193898
20
-0.4062859695964105
30
0
10
-57.945707187509676
20
-0.37407515539564828
30
0
10
-58.173119728627285
20
-0.32280724484828871
30
0
10
-58.431920525446088
20
-0.24388646116982815
30
0
10
-58.662805768081654
20
-0.14870201352430459
30
0
10
-58.86320799139245
20
-0.035758091012435621
30
0
10
-59.031242152777381
20
0.096043536375264513
30
0
10
-59.167461014343992
20
0.24638082820288079
30
0
10
-59.273969290624024
20
0.41402757310074806
30
0
10
-59.337205899296606
20
0.56094474707916187
30
0
10
-59.373038579035835
20
0.6778877702940358
30
0
10
-59.391856975071384
20
0.75880361232711357
30
0
10
-59.399998672306538
20
0.79999998211860657
30
0
0
LINE
5
143
100
AcDbEntity
8
0
100
AcDbLine
10
-57.577568738487415
20
17.606173063226656
30
0
11
-57.578481367075227
21
16.291877164094153
31
0
0
LINE
5
144
100
AcDbEntity
8
0
100
AcDbLine
10
-55.685222692606963
20
16.290562511897807
30
0
11
-55.684305971808058
21
17.610751691525437
31
0
0
ARC
5
145
100
AcDbEntity
8
0
100
AcDbCircle
10
-56.631724176361871
20
16.475344361034004
30
0
40
0.96436994484503136
210
0
220
0
230
1
100
AcDbArc
50
190.96712099659297
51
348.95330824924912
0
LINE
5
146
100
AcDbEntity
8
0
100
AcDbLine
10
-57.574973086176364
20
-0.43372308757349815
30
0
11
-57.569335687749081
21
1.0441621057173207
31
0
0
LINE
5
147
100
AcDbEntity
8
0
100
AcDbLine
10
-55.696996205167679
20
1.037020059973607
30
0
11
-55.702633603594961
21
-0.44086513331721333
31
0
0
ARC
5
148
100
AcDbEntity
8
0
100
AcDbCircle
10
-56.63419510773214
20
0.77078893427823925
30
0
40
0.97427962888334041
210
0
220
-0
230
1
100
AcDbArc
50
15.858316187199325
51
163.70457601551888
0
LINE
5
149
100
AcDbEntity
8
0
100
AcDbLine
10
-54.997568738487416
20
17.606173063226656
30
0
11
-54.998481367075229
21
16.291877164094153
31
0
0
ARC
5
150
100
AcDbEntity
8
0
100
AcDbCircle
10
-54.051724176361873
20
16.475344361034004
30
0
40
0.96436994484503136
210
0
220
0
230
1
100
AcDbArc
50
190.96712099659297
51
348.95330824924918
0
LINE
5
151
100
AcDbEntity
8
0
100
AcDbLine
10
-53.105222692606958
20
16.290562511897807
30
0
11
-53.104305971808053
21
17.610751691525437
31
0
0
LINE
5
152
100
AcDbEntity
8
0
100
AcDbLine
10
-54.994973086176358
20
-0.43372308757349815
30
0
11
-54.989335687749083
21
1.0441621057173207
31
0
0
ARC
5
153
100
AcDbEntity
8
0
100
AcDbCircle
10
-54.054195107732141
20
0.77078893427823925
30
0
40
0.97427962888334041
210
0
220
-0
230
1
100
AcDbArc
50
15.858316187199325
51
163.70457601551888
0
LINE
5
154
100
AcDbEntity
8
0
100
AcDbLine
10
-53.116996205167681
20
1.037020059973607
30
0
11
-53.122633603594956
21
-0.44086513331721333
31
0
0
LINE
5
155
100
AcDbEntity
8
0
100
AcDbLine
10
-52.417568738487418
20
17.606173063226656
30
0
11
-52.418481367075231
21
16.291877164094153
31
0
0
ARC
5
156
100
AcDbEntity
8
0
100
AcDbCircle
10
-51.471724176361874
20
16.475344361034004
30
0
40
0.96436994484503136
210
0
220
0
230
1
100
AcDbArc
50
190.96712099659297
51
348.95330824924918
0
LINE
5
157
100
AcDbEntity
8
0
100
AcDbLine
10
-50.52522269260696
20
16.290562511897807
30
0
11
-50.524305971808054
21
17.610751691525437
31
0
0
LINE
5
158
100
AcDbEntity
8
0
100
AcDbLine
10
-52.41497308617636
20
-0.43372308757349815
30
0
11
-52.409335687749078
21
1.0441621057173207
31
0
0
ARC
5
159
100
AcDbEntity
8
0
100
AcDbCircle
10
-51.474195107732143
20
0.77078893427823925
30
0
40
0.97427962888334041
210
0
220
-0
230
1
100
AcDbArc
50
15.858316187199184
51
163.70457601551874
0
LINE
5
160
100
AcDbEntity
8
0
100
AcDbLine
10
-50.536996205167675
20
1.037020059973607
30
0
11
-50.542633603594957
21
-0.44086513331721333
31
0
0
LINE
5
161
100
AcDbEntity
8
0
100
AcDbLine
10
-49.837568738487413
20
17.606173063226656
30
0
11
-49.838481367075225
21
16.291877164094153
31
0
0
ARC
5
162
100
AcDbEntity
8
0
100
AcDbCircle
10
-48.891724176361876
20
16.475344361034004
30
0
40
0.96436994484503136
210
0
220
0
230
1
100
AcDbArc
50
190.96712099659308
51
348.95330824924918
0
LINE
5
163
100
AcDbEntity
8
0
100
AcDbLine
10
-47.945222692606961
20
16.290562511897807
30
0
11
-47.944305971808056
21
17.610751691525437
31
0
0
LINE
5
164
100
AcDbEntity
8
0
100
AcDbLine
10
-49.834973086176362
20
-0.43372308757349815
30
0
11
-49.829335687749079
21
1.0441621057173207
31
0
0
ARC
5
165
100
AcDbEntity
8
0
100
AcDbCircle
10
-48.894195107732145
20
0.77078893427823925
30
0
40
0.97427962888334041
210
0
220
-0
230
1
100
AcDbArc
50
15.858316187199184
51
163.70457601551874
0
LINE
5
166
100
AcDbEntity
8
0
100
AcDbLine
10
-47.956996205167677
20
1.037020059973607
30
0
11
-47.962633603594959
21
-0.44086513331721333
31
0
0
LINE
5
167
100
AcDbEntity
8
0
100
AcDbLine
10
-47.257568738487414
20
17.606173063226656
30
0
11
-47.258481367075227
21
16.291877164094153
31
0
0
ARC
5
168
100
AcDbEntity
8
0
100
AcDbCircle
10
-46.311724176361871
20
16.475344361034004
30
0
40
0.96436994484503136
210
0
220
0
230
1
100
AcDbArc
50
190.96712099659297
51
348.95330824924912
0
LINE
5
169
100
AcDbEntity
8
0
100
AcDbLine
10
-45.365222692606963
20
16.290562511897807
30
0
11
-45.364305971808051
21
17.610751691525437
31
0
0
LINE
5
170
100
AcDbEntity
8
0
100
AcDbLine
10
-47.254973086176363
20
-0.43372308757349815
30
0
11
-47.249335687749081
21
1.0441621057173207
31
0
0
ARC
5
171
100
AcDbEntity
8
0
100
AcDbCircle
10
-46.314195107732139
20
0.77078893427823925
30
0
40
0.97427962888334041
210
0
220
-0
230
1
100
AcDbArc
50
15.858316187199325
51
163.70457601551888
0
LINE
5
172
100
AcDbEntity
8
0
100
AcDbLine
10
-45.376996205167679
20
1.037020059973607
30
0
11
-45.382633603594954
21
-0.44086513331721333
31
0
0
LINE
5
173
100
AcDbEntity
8
0
100
AcDbLine
10
-44.677568738487416
20
17.606173063226656
30
0
11
-44.678481367075229
21
16.291877164094153
31
0
0
ARC
5
174
100
AcDbEntity
8
0
100
AcDbCircle
10
-43.731724176361872
20
16.475344361034004
30
0
40
0.96436994484503136
210
0
220
0
230
1
100
AcDbArc
50
190.96712099659297
51
348.95330824924912
0
LINE
5
175
100
AcDbEntity
8
0
100
AcDbLine
10
-42.785222692606965
20
16.290562511897807
30
0
11
-42.784305971808053
21
17.610751691525437
31
0
0
LINE
5
176
100
AcDbEntity
8
0
100
AcDbLine
10
-44.674973086176365
20
-0.43372308757349815
30
0
11
-44.669335687749083
21
1.0441621057173207
31
0
0
ARC
5
177
100
AcDbEntity
8
0
100
AcDbCircle
10
-43.734195107732141
20
0.77078893427823925
30
0
40
0.97427962888334041
210
0
220
-0
230
1
100
AcDbArc
50
15.858316187199184
51
163.70457601551888
0
LINE
5
178
100
AcDbEntity
8
0
100
AcDbLine
10
-42.796996205167673
20
1.037020059973607
30
0
11
-42.802633603594956
21
-0.44086513331721333
31
0
0
LINE
5
179
100
AcDbEntity
8
0
100
AcDbLine
10
-42.097568738487411
20
17.606173063226656
30
0
11
-42.098481367075223
21
16.291877164094153
31
0
0
ARC
5
180
100
AcDbEntity
8
0
100
AcDbCircle
10
-41.151724176361874
20
16.475344361034004
30
0
40
0.96436994484503136
210
0
220
0
230
1
100
AcDbArc
50
190.96712099659308
51
348.95330824924918
0
LINE
5
181
100
AcDbEntity
8
0
100
AcDbLine
10
-40.205222692606959
20
16.290562511897807
30
0
11
-40.204305971808054
21
17.610751691525437
31
0
0
LINE
5
182
100
AcDbEntity
8
0
100
AcDbLine
10
-42.09497308617636
20
-0.43372308757349815
30
0
11
-42.089335687749085
21
1.0441621057173207
31
0
0
ARC
5
183
100
AcDbEntity
8
0
100
AcDbCircle
10
-41.154195107732143
20
0.77078893427823925
30
0
40
0.97427962888334041
210
0
220
-0
230
1
100
AcDbArc
50
15.858316187199184
51
163.70457601551888
0
LINE
5
184
100
AcDbEntity
8
0
100
AcDbLine
10
-40.216996205167675
20
1.037020059973607
30
0
11
-40.222633603594957
21
-0.44086513331721333
31
0
0
ENDSEC
0
SECTION
2
OBJECTS
0
DICTIONARY
5
C
100
AcDbDictionary
3
ACAD_GROUP
350
D
3
ACAD_MLINESTYLE
350
17
0
DICTIONARY
5
D
100
AcDbDictionary
0
DICTIONARY
5
1A
330
C
100
AcDbDictionary
0
DICTIONARY
5
17
100
AcDbDictionary
0
ENDSEC
0
EOF
